<svg width="44" height="56" viewBox="0 0 44 56" fill="none" xmlns="http://www.w3.org/2000/svg">
<path d="M8.26348 10.6175C11.398 10.6175 13.9482 13.1677 13.9482 16.3022V20.1649C15.5027 18.6669 16.4713 16.565 16.4713 14.2356C16.4714 9.68721 12.7842 6 8.23574 6C3.6873 6 0 9.68721 0 14.2356C0 16.5927 0.991699 18.7167 2.57871 20.218V16.3021C2.57881 13.1676 5.12891 10.6175 8.26348 10.6175Z" fill="#40C1AF"/>
<path d="M25.3796 28.4397C23.8041 28.4397 22.5269 29.7169 22.5269 31.2924V29.437C22.5269 27.8615 21.2496 26.5842 19.6741 26.5842C18.0986 26.5842 16.8214 27.8615 16.8214 29.437V27.8745C16.8214 26.299 15.5441 25.0217 13.9687 25.0217C12.3932 25.0217 11.1159 26.299 11.1159 27.8745V16.3022C11.1159 14.7267 9.83867 13.4495 8.26318 13.4495C6.6877 13.4495 5.41045 14.7267 5.41045 16.3022V31.2016C2.87227 31.4043 0.868652 33.5333 0.868652 36.1228V42.318L7.31953 50.3659L7.28281 56H23.7317L23.7587 50.3366L28.2324 43.3686V31.2924C28.2323 29.7168 26.9552 28.4397 25.3796 28.4397Z" fill="#40C1AF"/>
<path d="M32.8218 15.625V20.3125H35.9468L31.2593 25L26.5718 20.3125H29.6968V15.625H32.8218Z" fill="#FC8730"/>
<path d="M29.6968 9.375V4.6875H26.5718L31.2593 0L35.9468 4.6875H32.8218V9.375H29.6968Z" fill="#FC8730"/>
<path d="M28.1343 14.0625H23.4468V17.1875L18.7593 12.5L23.4468 7.8125V10.9375H28.1343V14.0625Z" fill="#FC8730"/>
<path d="M34.3843 10.9375H39.0718V7.8125L43.7593 12.5L39.0718 17.1875V14.0625H34.3843V10.9375Z" fill="#FC8730"/>
</svg>
